#N canvas -8 0 958 956 12;
#X obj 276 106 netreceive -u -b 5005;
#X obj 286 155 oscparse;
#X obj 281 207 list trim;
#X obj 271 478 unpack f f f;
#X obj 403 493 f;
#X obj 553 502 f;
#X obj 393 192 print osc;
#X obj 661 481 unpack f f f;
#X obj 399 240 print;
#X obj 266 404 route rgb;
#X obj 392 406 route brightness;
#X obj 537 408 route contrast;
#X obj 671 402 route dominant;
#X obj 279 249 route cell;
#X obj 281 290 route 0;
#X obj 364 290 route 1;
#X obj 447 288 route 2;
#X obj 547 280 route 3;
#X obj 280 340 route 0;
#X obj 361 340 route 1;
#X obj 447 340 route 2;
#X obj 550 339 route 3;
#X obj 2192 385 loadbang;
#X floatatom 2268 488 5 0 0 0 - - - 0;
#X obj 2236 516 metro;
#X obj 2236 483 tgl 19 0 empty empty empty 0 -10 0 12 #fcfcfc #000000 #000000 0 1;
#X obj 2180 515 sel 0;
#X obj 2180 549 bng 19 250 50 0 empty empty empty 0 -10 0 12 #fcfcfc #000000 #000000;
#X obj 2107 496 loadbang;
#X msg 2180 580 -1;
#X obj 2236 551 bng 19 250 50 0 empty empty empty 0 -10 0 12 #fcfcfc #000000 #000000;
#X obj 2236 620 int 1;
#X obj 2321 653 + 1;
#X floatatom 2236 661 5 0 0 0 - - - 0;
#X obj 2236 697 % 8;
#X obj 2236 735 + 1;
#X floatatom 2236 771 5 0 0 0 - - - 0;
#X obj 2034 816 sel 1;
#X obj 2034 848 bng 19 250 50 0 empty empty empty 0 -10 0 12 #fcfcfc #000000 #000000;
#X obj 2088 849 bng 19 250 50 0 empty empty empty 0 -10 0 12 #fcfcfc #000000 #000000;
#X obj 2142 848 bng 19 250 50 0 empty empty empty 0 -10 0 12 #fcfcfc #000000 #000000;
#X obj 2194 850 bng 19 250 50 0 empty empty empty 0 -10 0 12 #fcfcfc #000000 #000000;
#X obj 2242 849 bng 19 250 50 0 empty empty empty 0 -10 0 12 #fcfcfc #000000 #000000;
#X obj 2292 848 bng 19 250 50 0 empty empty empty 0 -10 0 12 #fcfcfc #000000 #000000;
#X obj 2340 848 bng 19 250 50 0 empty empty empty 0 -10 0 12 #fcfcfc #000000 #000000;
#X obj 2388 847 bng 19 250 50 0 empty empty empty 0 -10 0 12 #fcfcfc #000000 #000000;
#X obj 2088 817 sel 2;
#X obj 2142 818 sel 3;
#X obj 2194 818 sel 4;
#X obj 2242 817 sel 5;
#X obj 2292 816 sel 6;
#X obj 2340 816 sel 7;
#X obj 2388 815 sel 8;
#X msg 2268 430 450;
#X obj 2306 457 *;
#X obj 2268 378 bng 19 250 50 0 empty empty empty 0 -10 0 12 #fcfcfc #000000 #000000;
#X obj 2258 322 route button2;
#X obj 2133 320 route toggle2;
#X obj 2034 883 s One2;
#X obj 2088 884 s Two2;
#X obj 2137 885 s Three2;
#X obj 2194 885 s Four2;
#X obj 2242 884 s Five2;
#X obj 2292 883 s Six2;
#X obj 2335 883 s Seven2;
#X obj 2392 883 s Eight2;
#X obj 2311 367 route slider2;
#X obj 2202 395 loadbang;
#X floatatom 2278 498 5 0 0 0 - - - 0;
#X obj 2246 526 metro;
#X obj 2246 493 tgl 19 0 empty empty empty 0 -10 0 12 #fcfcfc #000000 #000000 0 1;
#X obj 2190 525 sel 0;
#X obj 2190 559 bng 19 250 50 0 empty empty empty 0 -10 0 12 #fcfcfc #000000 #000000;
#X obj 2117 506 loadbang;
#X msg 2190 590 -1;
#X obj 2246 561 bng 19 250 50 0 empty empty empty 0 -10 0 12 #fcfcfc #000000 #000000;
#X obj 2246 630 int 1;
#X obj 2331 663 + 1;
#X floatatom 2246 671 5 0 0 0 - - - 0;
#X obj 2246 707 % 8;
#X obj 2246 745 + 1;
#X floatatom 2246 781 5 0 0 0 - - - 0;
#X obj 2044 826 sel 1;
#X obj 2044 858 bng 19 250 50 0 empty empty empty 0 -10 0 12 #fcfcfc #000000 #000000;
#X obj 2098 859 bng 19 250 50 0 empty empty empty 0 -10 0 12 #fcfcfc #000000 #000000;
#X obj 2152 858 bng 19 250 50 0 empty empty empty 0 -10 0 12 #fcfcfc #000000 #000000;
#X obj 2204 860 bng 19 250 50 0 empty empty empty 0 -10 0 12 #fcfcfc #000000 #000000;
#X obj 2252 859 bng 19 250 50 0 empty empty empty 0 -10 0 12 #fcfcfc #000000 #000000;
#X obj 2302 858 bng 19 250 50 0 empty empty empty 0 -10 0 12 #fcfcfc #000000 #000000;
#X obj 2350 858 bng 19 250 50 0 empty empty empty 0 -10 0 12 #fcfcfc #000000 #000000;
#X obj 2398 857 bng 19 250 50 0 empty empty empty 0 -10 0 12 #fcfcfc #000000 #000000;
#X obj 2098 827 sel 2;
#X obj 2152 828 sel 3;
#X obj 2204 828 sel 4;
#X obj 2252 827 sel 5;
#X obj 2302 826 sel 6;
#X obj 2350 826 sel 7;
#X obj 2398 825 sel 8;
#X msg 2278 440 450;
#X obj 2316 467 *;
#X obj 2278 388 bng 19 250 50 0 empty empty empty 0 -10 0 12 #fcfcfc #000000 #000000;
#X obj 2268 332 route button2;
#X obj 2143 330 route toggle2;
#X obj 2044 893 s One2;
#X obj 2098 894 s Two2;
#X obj 2147 895 s Three2;
#X obj 2204 895 s Four2;
#X obj 2252 894 s Five2;
#X obj 2302 893 s Six2;
#X obj 2345 893 s Seven2;
#X obj 2402 893 s Eight2;
#X obj 2321 377 route slider2;
#X obj 2212 405 loadbang;
#X floatatom 2288 508 5 0 0 0 - - - 0;
#X obj 2256 536 metro;
#X obj 2256 503 tgl 19 0 empty empty empty 0 -10 0 12 #fcfcfc #000000 #000000 0 1;
#X obj 2200 535 sel 0;
#X obj 2200 569 bng 19 250 50 0 empty empty empty 0 -10 0 12 #fcfcfc #000000 #000000;
#X obj 2127 516 loadbang;
#X msg 2200 600 -1;
#X obj 2256 571 bng 19 250 50 0 empty empty empty 0 -10 0 12 #fcfcfc #000000 #000000;
#X obj 2256 640 int 1;
#X obj 2341 673 + 1;
#X floatatom 2256 681 5 0 0 0 - - - 0;
#X obj 2256 717 % 8;
#X obj 2256 755 + 1;
#X floatatom 2256 791 5 0 0 0 - - - 0;
#X obj 2054 836 sel 1;
#X obj 2054 868 bng 19 250 50 0 empty empty empty 0 -10 0 12 #fcfcfc #000000 #000000;
#X obj 2108 869 bng 19 250 50 0 empty empty empty 0 -10 0 12 #fcfcfc #000000 #000000;
#X obj 2162 868 bng 19 250 50 0 empty empty empty 0 -10 0 12 #fcfcfc #000000 #000000;
#X obj 2214 870 bng 19 250 50 0 empty empty empty 0 -10 0 12 #fcfcfc #000000 #000000;
#X obj 2262 869 bng 19 250 50 0 empty empty empty 0 -10 0 12 #fcfcfc #000000 #000000;
#X obj 2312 868 bng 19 250 50 0 empty empty empty 0 -10 0 12 #fcfcfc #000000 #000000;
#X obj 2360 868 bng 19 250 50 0 empty empty empty 0 -10 0 12 #fcfcfc #000000 #000000;
#X obj 2408 867 bng 19 250 50 0 empty empty empty 0 -10 0 12 #fcfcfc #000000 #000000;
#X obj 2108 837 sel 2;
#X obj 2162 838 sel 3;
#X obj 2214 838 sel 4;
#X obj 2262 837 sel 5;
#X obj 2312 836 sel 6;
#X obj 2360 836 sel 7;
#X obj 2408 835 sel 8;
#X msg 2288 450 450;
#X obj 2326 477 *;
#X obj 2288 398 bng 19 250 50 0 empty empty empty 0 -10 0 12 #fcfcfc #000000 #000000;
#X obj 2278 342 route button2;
#X obj 2153 340 route toggle2;
#X obj 2054 903 s One2;
#X obj 2108 904 s Two2;
#X obj 2157 905 s Three2;
#X obj 2214 905 s Four2;
#X obj 2262 904 s Five2;
#X obj 2312 903 s Six2;
#X obj 2355 903 s Seven2;
#X obj 2412 903 s Eight2;
#X obj 2331 387 route slider2;
#X floatatom 217 537 5 0 0 0 - - - 0;
#X floatatom 289 546 5 0 0 0 - - - 0;
#X floatatom 347 543 5 0 0 0 - - - 0;
#X floatatom 160 627 5 0 0 0 - - - 0;
#X msg 138 539 450;
#X obj 160 585 *;
#X obj 129 669 metro;
#X obj 120 628 tgl 19 0 empty empty empty 0 -10 0 12 #fcfcfc #000000 #000000 0 1;
#X obj 66 714 bng 19 250 50 0 empty empty empty 0 -10 0 12 #fcfcfc #000000 #000000;
#X obj 129 720 bng 19 250 50 0 empty empty empty 0 -10 0 12 #fcfcfc #000000 #000000;
#X obj 66 668 sel 0;
#X msg 65 764 -1;
#X floatatom 2298 518 5 0 0 0 - - - 0;
#X obj 2266 546 metro;
#X obj 2266 513 tgl 19 0 empty empty empty 0 -10 0 12 #fcfcfc #000000 #000000 0 1;
#X obj 2210 545 sel 0;
#X obj 2210 579 bng 19 250 50 0 empty empty empty 0 -10 0 12 #fcfcfc #000000 #000000;
#X obj 2137 526 loadbang;
#X msg 2210 610 -1;
#X obj 2266 581 bng 19 250 50 0 empty empty empty 0 -10 0 12 #fcfcfc #000000 #000000;
#X obj 2266 650 int 1;
#X obj 2351 683 + 1;
#X floatatom 2266 691 5 0 0 0 - - - 0;
#X obj 2266 727 % 8;
#X obj 2266 765 + 1;
#X floatatom 2266 801 5 0 0 0 - - - 0;
#X obj 2064 846 sel 1;
#X obj 2118 879 bng 19 250 50 0 empty empty empty 0 -10 0 12 #fcfcfc #000000 #000000;
#X obj 2172 878 bng 19 250 50 0 empty empty empty 0 -10 0 12 #fcfcfc #000000 #000000;
#X obj 2224 880 bng 19 250 50 0 empty empty empty 0 -10 0 12 #fcfcfc #000000 #000000;
#X obj 2272 879 bng 19 250 50 0 empty empty empty 0 -10 0 12 #fcfcfc #000000 #000000;
#X obj 2322 878 bng 19 250 50 0 empty empty empty 0 -10 0 12 #fcfcfc #000000 #000000;
#X obj 2370 878 bng 19 250 50 0 empty empty empty 0 -10 0 12 #fcfcfc #000000 #000000;
#X obj 2418 877 bng 19 250 50 0 empty empty empty 0 -10 0 12 #fcfcfc #000000 #000000;
#X obj 2118 847 sel 2;
#X obj 2172 848 sel 3;
#X obj 2224 848 sel 4;
#X obj 2272 847 sel 5;
#X obj 2322 846 sel 6;
#X obj 2370 846 sel 7;
#X obj 2418 845 sel 8;
#X obj 2064 913 s One2;
#X obj 2118 914 s Two2;
#X obj 2167 915 s Three2;
#X obj 2224 915 s Four2;
#X obj 2272 914 s Five2;
#X obj 2322 913 s Six2;
#X obj 2365 913 s Seven2;
#X obj 2422 913 s Eight2;
#X obj 129 806 int 1;
#X obj 210 837 + 1;
#X floatatom 128 852 5 0 0 0 - - - 0;
#X obj 127 895 % 8;
#X obj 124 937 + 1;
#X floatatom 128 974 5 0 0 0 - - - 0;
#X obj 78 1063 bng 19 250 50 0 empty empty empty 0 -10 0 12 #fcfcfc #000000 #000000;
#X obj 134 1064 bng 19 250 50 0 empty empty empty 0 -10 0 12 #fcfcfc #000000 #000000;
#X obj 191 1062 bng 19 250 50 0 empty empty empty 0 -10 0 12 #fcfcfc #000000 #000000;
#X obj 248 1067 bng 19 250 50 0 empty empty empty 0 -10 0 12 #fcfcfc #000000 #000000;
#X obj 310 1065 bng 19 250 50 0 empty empty empty 0 -10 0 12 #fcfcfc #000000 #000000;
#X obj 368 1069 bng 19 250 50 0 empty empty empty 0 -10 0 12 #fcfcfc #000000 #000000;
#X obj 428 1069 bng 19 250 50 0 empty empty empty 0 -10 0 12 #fcfcfc #000000 #000000;
#X obj 484 1070 bng 19 250 50 0 empty empty empty 0 -10 0 12 #fcfcfc #000000 #000000;
#X obj 75 1111 bng 19 250 50 0 empty empty empty 0 -10 0 12 #fcfcfc #000000 #000000;
#X obj 135 1113 bng 19 250 50 0 empty empty empty 0 -10 0 12 #fcfcfc #000000 #000000;
#X obj 195 1111 bng 19 250 50 0 empty empty empty 0 -10 0 12 #fcfcfc #000000 #000000;
#X obj 250 1110 bng 19 250 50 0 empty empty empty 0 -10 0 12 #fcfcfc #000000 #000000;
#X obj 312 1112 bng 19 250 50 0 empty empty empty 0 -10 0 12 #fcfcfc #000000 #000000;
#X obj 369 1111 bng 19 250 50 0 empty empty empty 0 -10 0 12 #fcfcfc #000000 #000000;
#X obj 423 1110 bng 19 250 50 0 empty empty empty 0 -10 0 12 #fcfcfc #000000 #000000;
#X obj 485 1115 bng 19 250 50 0 empty empty empty 0 -10 0 12 #fcfcfc #000000 #000000;
#X obj 25 1161 spigot;
#X obj 94 1164 spigot;
#X obj 195 1135 spigot;
#X obj 250 1139 spigot;
#X obj 312 1136 spigot;
#X obj 369 1135 spigot;
#X obj 423 1134 spigot;
#X obj 485 1139 spigot;
#X obj 82 1200 bng 19 250 50 0 empty empty empty 0 -10 0 12 #fcfcfc #000000 #000000;
#X obj 138 1201 bng 19 250 50 0 empty empty empty 0 -10 0 12 #fcfcfc #000000 #000000;
#X obj 195 1199 bng 19 250 50 0 empty empty empty 0 -10 0 12 #fcfcfc #000000 #000000;
#X obj 252 1204 bng 19 250 50 0 empty empty empty 0 -10 0 12 #fcfcfc #000000 #000000;
#X obj 314 1202 bng 19 250 50 0 empty empty empty 0 -10 0 12 #fcfcfc #000000 #000000;
#X obj 372 1206 bng 19 250 50 0 empty empty empty 0 -10 0 12 #fcfcfc #000000 #000000;
#X obj 432 1206 bng 19 250 50 0 empty empty empty 0 -10 0 12 #fcfcfc #000000 #000000;
#X obj 488 1207 bng 19 250 50 0 empty empty empty 0 -10 0 12 #fcfcfc #000000 #000000;
#X obj 294 1275 bng 19 250 50 0 empty empty empty 0 -10 0 12 #fcfcfc #000000 #000000;
#X obj 277 1364 readsf~;
#X obj 297 1404 *~;
#X obj 284 597 s vol;
#X obj 380 1365 r vol;
#X obj 290 1465 dac~;
#X obj 39 595 s sign;
#X obj 279 1094 r sign;
#X obj 78 1014 sel 1;
#X obj 134 1011 sel 2;
#X obj 191 1013 sel 3;
#X obj 248 1018 sel 4;
#X obj 310 1016 sel 5;
#X obj 368 1020 sel 6;
#X obj 428 1020 sel 7;
#X obj 484 1021 sel 8;
#X msg 253 1317 open cymbal.wav \, 1;
#X floatatom 166 441 5 0 0 0 - - - 0;
#X obj 135 483 metro;
#X obj 126 442 tgl 19 0 empty empty empty 0 -10 0 12 #fcfcfc #000000 #000000 0 1;
#X connect 0 0 1 0;
#X connect 1 0 2 0;
#X connect 2 0 13 0;
#X connect 3 0 157 0;
#X connect 3 1 158 0;
#X connect 3 2 159 0;
#X connect 9 0 3 0;
#X connect 10 0 4 0;
#X connect 11 0 5 0;
#X connect 12 0 7 0;
#X connect 13 0 14 0;
#X connect 13 0 15 0;
#X connect 13 0 16 0;
#X connect 13 0 17 0;
#X connect 14 0 18 0;
#X connect 14 0 19 0;
#X connect 14 0 20 0;
#X connect 14 0 21 0;
#X connect 15 0 18 0;
#X connect 15 0 19 0;
#X connect 15 0 20 0;
#X connect 15 0 21 0;
#X connect 16 0 18 0;
#X connect 16 0 19 0;
#X connect 16 0 20 0;
#X connect 16 0 21 0;
#X connect 17 0 18 0;
#X connect 17 0 19 0;
#X connect 17 0 20 0;
#X connect 17 0 21 0;
#X connect 18 0 9 0;
#X connect 18 0 10 0;
#X connect 18 0 11 0;
#X connect 18 0 12 0;
#X connect 22 0 53 0;
#X connect 23 0 24 1;
#X connect 24 0 30 0;
#X connect 25 0 24 0;
#X connect 25 0 26 0;
#X connect 26 0 27 0;
#X connect 27 0 29 0;
#X connect 28 0 27 0;
#X connect 29 0 31 0;
#X connect 30 0 31 0;
#X connect 31 0 32 0;
#X connect 31 0 33 0;
#X connect 32 0 31 1;
#X connect 33 0 34 0;
#X connect 34 0 35 0;
#X connect 35 0 36 0;
#X connect 36 0 37 0;
#X connect 36 0 46 0;
#X connect 36 0 47 0;
#X connect 36 0 48 0;
#X connect 36 0 49 0;
#X connect 36 0 50 0;
#X connect 36 0 51 0;
#X connect 36 0 52 0;
#X connect 37 0 38 0;
#X connect 38 0 58 0;
#X connect 39 0 59 0;
#X connect 40 0 60 0;
#X connect 41 0 61 0;
#X connect 42 0 62 0;
#X connect 43 0 63 0;
#X connect 44 0 64 0;
#X connect 45 0 65 0;
#X connect 46 0 39 0;
#X connect 47 0 40 0;
#X connect 48 0 41 0;
#X connect 49 0 42 0;
#X connect 50 0 43 0;
#X connect 51 0 44 0;
#X connect 52 0 45 0;
#X connect 53 0 54 0;
#X connect 54 0 23 0;
#X connect 55 0 53 0;
#X connect 56 0 55 0;
#X connect 57 0 25 0;
#X connect 66 0 54 1;
#X connect 67 0 98 0;
#X connect 68 0 69 1;
#X connect 69 0 75 0;
#X connect 70 0 69 0;
#X connect 70 0 71 0;
#X connect 71 0 72 0;
#X connect 72 0 74 0;
#X connect 73 0 72 0;
#X connect 74 0 76 0;
#X connect 75 0 76 0;
#X connect 76 0 77 0;
#X connect 76 0 78 0;
#X connect 77 0 76 1;
#X connect 78 0 79 0;
#X connect 79 0 80 0;
#X connect 80 0 81 0;
#X connect 81 0 82 0;
#X connect 81 0 91 0;
#X connect 81 0 92 0;
#X connect 81 0 93 0;
#X connect 81 0 94 0;
#X connect 81 0 95 0;
#X connect 81 0 96 0;
#X connect 81 0 97 0;
#X connect 82 0 83 0;
#X connect 83 0 103 0;
#X connect 84 0 104 0;
#X connect 85 0 105 0;
#X connect 86 0 106 0;
#X connect 87 0 107 0;
#X connect 88 0 108 0;
#X connect 89 0 109 0;
#X connect 90 0 110 0;
#X connect 91 0 84 0;
#X connect 92 0 85 0;
#X connect 93 0 86 0;
#X connect 94 0 87 0;
#X connect 95 0 88 0;
#X connect 96 0 89 0;
#X connect 97 0 90 0;
#X connect 98 0 99 0;
#X connect 99 0 68 0;
#X connect 100 0 98 0;
#X connect 101 0 100 0;
#X connect 102 0 70 0;
#X connect 111 0 99 1;
#X connect 112 0 143 0;
#X connect 113 0 114 1;
#X connect 114 0 120 0;
#X connect 115 0 114 0;
#X connect 115 0 116 0;
#X connect 116 0 117 0;
#X connect 117 0 119 0;
#X connect 118 0 117 0;
#X connect 119 0 121 0;
#X connect 120 0 121 0;
#X connect 121 0 122 0;
#X connect 121 0 123 0;
#X connect 122 0 121 1;
#X connect 123 0 124 0;
#X connect 124 0 125 0;
#X connect 125 0 126 0;
#X connect 126 0 127 0;
#X connect 126 0 136 0;
#X connect 126 0 137 0;
#X connect 126 0 138 0;
#X connect 126 0 139 0;
#X connect 126 0 140 0;
#X connect 126 0 141 0;
#X connect 126 0 142 0;
#X connect 127 0 128 0;
#X connect 128 0 148 0;
#X connect 129 0 149 0;
#X connect 130 0 150 0;
#X connect 131 0 151 0;
#X connect 132 0 152 0;
#X connect 133 0 153 0;
#X connect 134 0 154 0;
#X connect 135 0 155 0;
#X connect 136 0 129 0;
#X connect 137 0 130 0;
#X connect 138 0 131 0;
#X connect 139 0 132 0;
#X connect 140 0 133 0;
#X connect 141 0 134 0;
#X connect 142 0 135 0;
#X connect 143 0 144 0;
#X connect 144 0 113 0;
#X connect 145 0 143 0;
#X connect 146 0 145 0;
#X connect 147 0 115 0;
#X connect 156 0 144 1;
#X connect 157 0 162 1;
#X connect 158 0 247 0;
#X connect 160 0 163 1;
#X connect 161 0 162 0;
#X connect 162 0 160 0;
#X connect 163 0 166 0;
#X connect 164 0 163 0;
#X connect 164 0 167 0;
#X connect 164 0 250 0;
#X connect 165 0 168 0;
#X connect 166 0 206 0;
#X connect 167 0 165 0;
#X connect 168 0 206 0;
#X connect 169 0 170 1;
#X connect 170 0 176 0;
#X connect 171 0 170 0;
#X connect 171 0 172 0;
#X connect 172 0 173 0;
#X connect 173 0 175 0;
#X connect 174 0 173 0;
#X connect 175 0 177 0;
#X connect 176 0 177 0;
#X connect 177 0 178 0;
#X connect 177 0 179 0;
#X connect 178 0 177 1;
#X connect 179 0 180 0;
#X connect 180 0 181 0;
#X connect 181 0 182 0;
#X connect 182 0 183 0;
#X connect 182 0 191 0;
#X connect 182 0 192 0;
#X connect 182 0 193 0;
#X connect 182 0 194 0;
#X connect 182 0 195 0;
#X connect 182 0 196 0;
#X connect 182 0 197 0;
#X connect 184 0 199 0;
#X connect 185 0 200 0;
#X connect 186 0 201 0;
#X connect 187 0 202 0;
#X connect 188 0 203 0;
#X connect 189 0 204 0;
#X connect 190 0 205 0;
#X connect 191 0 184 0;
#X connect 192 0 185 0;
#X connect 193 0 186 0;
#X connect 194 0 187 0;
#X connect 195 0 188 0;
#X connect 196 0 189 0;
#X connect 197 0 190 0;
#X connect 206 0 207 0;
#X connect 206 0 208 0;
#X connect 207 0 206 1;
#X connect 208 0 209 0;
#X connect 209 0 210 0;
#X connect 210 0 211 0;
#X connect 211 0 252 0;
#X connect 211 0 253 0;
#X connect 211 0 254 0;
#X connect 211 0 255 0;
#X connect 211 0 256 0;
#X connect 211 0 257 0;
#X connect 211 0 258 0;
#X connect 211 0 259 0;
#X connect 212 0 220 0;
#X connect 213 0 221 0;
#X connect 214 0 222 0;
#X connect 215 0 223 0;
#X connect 216 0 224 0;
#X connect 217 0 225 0;
#X connect 218 0 226 0;
#X connect 219 0 227 0;
#X connect 220 0 228 0;
#X connect 221 0 229 0;
#X connect 222 0 230 0;
#X connect 223 0 231 0;
#X connect 224 0 232 0;
#X connect 225 0 233 0;
#X connect 226 0 234 0;
#X connect 227 0 235 0;
#X connect 228 0 236 0;
#X connect 229 0 237 0;
#X connect 230 0 238 0;
#X connect 231 0 239 0;
#X connect 232 0 240 0;
#X connect 233 0 241 0;
#X connect 234 0 242 0;
#X connect 235 0 243 0;
#X connect 236 0 244 0;
#X connect 237 0 244 0;
#X connect 238 0 244 0;
#X connect 239 0 244 0;
#X connect 240 0 244 0;
#X connect 241 0 244 0;
#X connect 242 0 244 0;
#X connect 243 0 244 0;
#X connect 244 0 260 0;
#X connect 245 0 246 0;
#X connect 246 0 249 0;
#X connect 246 0 249 1;
#X connect 248 0 246 1;
#X connect 251 0 228 1;
#X connect 251 0 229 1;
#X connect 251 0 230 1;
#X connect 251 0 235 1;
#X connect 251 0 234 1;
#X connect 251 0 233 1;
#X connect 251 0 232 1;
#X connect 251 0 231 1;
#X connect 252 0 212 0;
#X connect 253 0 213 0;
#X connect 254 0 214 0;
#X connect 255 0 215 0;
#X connect 256 0 216 0;
#X connect 257 0 217 0;
#X connect 258 0 218 0;
#X connect 259 0 219 0;
#X connect 260 0 245 0;
#X connect 261 0 262 1;
#X connect 262 0 161 0;
#X connect 263 0 262 0;
